<svg width="236" height="15" viewBox="0 0 236 15" fill="none" xmlns="http://www.w3.org/2000/svg">
<path d="M5.43006 12.072C4.59806 12.072 3.84606 11.888 3.17406 11.52C2.51006 11.152 1.98606 10.644 1.60206 9.996C1.22606 9.34 1.03806 8.608 1.03806 7.8C1.03806 6.992 1.22606 6.264 1.60206 5.616C1.98606 4.96 2.51406 4.448 3.18606 4.08C3.85806 3.712 4.61006 3.528 5.44206 3.528C6.06606 3.528 6.64206 3.632 7.17006 3.84C7.69806 4.048 8.14606 4.352 8.51406 4.752L7.95006 5.316C7.29406 4.652 6.46606 4.32 5.46606 4.32C4.80206 4.32 4.19806 4.472 3.65406 4.776C3.11006 5.08 2.68206 5.496 2.37006 6.024C2.06606 6.552 1.91406 7.144 1.91406 7.8C1.91406 8.456 2.06606 9.048 2.37006 9.576C2.68206 10.104 3.11006 10.52 3.65406 10.824C4.19806 11.128 4.80206 11.28 5.46606 11.28C6.47406 11.28 7.30206 10.944 7.95006 10.272L8.51406 10.836C8.14606 11.236 7.69406 11.544 7.15806 11.76C6.63006 11.968 6.05406 12.072 5.43006 12.072ZM12.5258 12.06C11.9178 12.06 11.3698 11.924 10.8818 11.652C10.3938 11.372 10.0098 10.988 9.72981 10.5C9.44981 10.012 9.30981 9.46 9.30981 8.844C9.30981 8.228 9.44981 7.676 9.72981 7.188C10.0098 6.7 10.3938 6.32 10.8818 6.048C11.3698 5.776 11.9178 5.64 12.5258 5.64C13.1338 5.64 13.6818 5.776 14.1698 6.048C14.6578 6.32 15.0378 6.7 15.3098 7.188C15.5898 7.676 15.7298 8.228 15.7298 8.844C15.7298 9.46 15.5898 10.012 15.3098 10.5C15.0378 10.988 14.6578 11.372 14.1698 11.652C13.6818 11.924 13.1338 12.06 12.5258 12.06ZM12.5258 11.304C12.9738 11.304 13.3738 11.204 13.7258 11.004C14.0858 10.796 14.3658 10.504 14.5658 10.128C14.7658 9.752 14.8658 9.324 14.8658 8.844C14.8658 8.364 14.7658 7.936 14.5658 7.56C14.3658 7.184 14.0858 6.896 13.7258 6.696C13.3738 6.488 12.9738 6.384 12.5258 6.384C12.0778 6.384 11.6738 6.488 11.3138 6.696C10.9618 6.896 10.6818 7.184 10.4738 7.56C10.2738 7.936 10.1738 8.364 10.1738 8.844C10.1738 9.324 10.2738 9.752 10.4738 10.128C10.6818 10.504 10.9618 10.796 11.3138 11.004C11.6738 11.204 12.0778 11.304 12.5258 11.304ZM20.7213 5.64C21.3133 5.64 21.8493 5.776 22.3293 6.048C22.8093 6.312 23.1853 6.688 23.4573 7.176C23.7293 7.664 23.8653 8.22 23.8653 8.844C23.8653 9.476 23.7293 10.036 23.4573 10.524C23.1853 11.012 22.8093 11.392 22.3293 11.664C21.8573 11.928 21.3213 12.06 20.7213 12.06C20.2093 12.06 19.7453 11.956 19.3293 11.748C18.9213 11.532 18.5853 11.22 18.3213 10.812V14.328H17.4693V5.688H18.2853V6.936C18.5413 6.52 18.8773 6.2 19.2933 5.976C19.7173 5.752 20.1933 5.64 20.7213 5.64ZM20.6613 11.304C21.1013 11.304 21.5013 11.204 21.8613 11.004C22.2213 10.796 22.5013 10.504 22.7013 10.128C22.9093 9.752 23.0133 9.324 23.0133 8.844C23.0133 8.364 22.9093 7.94 22.7013 7.572C22.5013 7.196 22.2213 6.904 21.8613 6.696C21.5013 6.488 21.1013 6.384 20.6613 6.384C20.2133 6.384 19.8093 6.488 19.4492 6.696C19.0973 6.904 18.8173 7.196 18.6093 7.572C18.4093 7.94 18.3093 8.364 18.3093 8.844C18.3093 9.324 18.4093 9.752 18.6093 10.128C18.8173 10.504 19.0973 10.796 19.4492 11.004C19.8093 11.204 20.2133 11.304 20.6613 11.304ZM30.7303 5.688L27.5743 12.756C27.3183 13.348 27.0223 13.768 26.6863 14.016C26.3503 14.264 25.9463 14.388 25.4743 14.388C25.1703 14.388 24.8863 14.34 24.6223 14.244C24.3583 14.148 24.1303 14.004 23.9383 13.812L24.3343 13.176C24.6543 13.496 25.0383 13.656 25.4863 13.656C25.7743 13.656 26.0183 13.576 26.2183 13.416C26.4263 13.256 26.6183 12.984 26.7943 12.6L27.0703 11.988L24.2503 5.688H25.1383L27.5143 11.052L29.8903 5.688H30.7303ZM32.7462 6.924C32.9462 6.5 33.2422 6.18 33.6342 5.964C34.0342 5.748 34.5262 5.64 35.1102 5.64V6.468L34.9062 6.456C34.2422 6.456 33.7222 6.66 33.3462 7.068C32.9702 7.476 32.7822 8.048 32.7822 8.784V12H31.9302V5.688H32.7462V6.924ZM36.6528 5.688H37.5048V12H36.6528V5.688ZM37.0848 4.308C36.9088 4.308 36.7608 4.248 36.6408 4.128C36.5208 4.008 36.4608 3.864 36.4608 3.696C36.4608 3.536 36.5208 3.396 36.6408 3.276C36.7608 3.156 36.9088 3.096 37.0848 3.096C37.2608 3.096 37.4088 3.156 37.5288 3.276C37.6488 3.388 37.7088 3.524 37.7088 3.684C37.7088 3.86 37.6488 4.008 37.5288 4.128C37.4088 4.248 37.2608 4.308 37.0848 4.308ZM45.7195 5.688V11.232C45.7195 12.304 45.4555 13.096 44.9275 13.608C44.4075 14.128 43.6195 14.388 42.5635 14.388C41.9795 14.388 41.4235 14.3 40.8955 14.124C40.3755 13.956 39.9515 13.72 39.6235 13.416L40.0555 12.768C40.3595 13.04 40.7275 13.252 41.1595 13.404C41.5995 13.556 42.0595 13.632 42.5395 13.632C43.3395 13.632 43.9275 13.444 44.3035 13.068C44.6795 12.7 44.8675 12.124 44.8675 11.34V10.536C44.6035 10.936 44.2555 11.24 43.8235 11.448C43.3995 11.656 42.9275 11.76 42.4075 11.76C41.8155 11.76 41.2755 11.632 40.7875 11.376C40.3075 11.112 39.9275 10.748 39.6475 10.284C39.3755 9.812 39.2395 9.28 39.2395 8.688C39.2395 8.096 39.3755 7.568 39.6475 7.104C39.9275 6.64 40.3075 6.28 40.7875 6.024C41.2675 5.768 41.8075 5.64 42.4075 5.64C42.9435 5.64 43.4275 5.748 43.8595 5.964C44.2915 6.18 44.6395 6.492 44.9035 6.9V5.688H45.7195ZM42.4915 11.004C42.9475 11.004 43.3595 10.908 43.7275 10.716C44.0955 10.516 44.3795 10.24 44.5795 9.888C44.7875 9.536 44.8915 9.136 44.8915 8.688C44.8915 8.24 44.7875 7.844 44.5795 7.5C44.3795 7.148 44.0955 6.876 43.7275 6.684C43.3675 6.484 42.9555 6.384 42.4915 6.384C42.0355 6.384 41.6235 6.48 41.2555 6.672C40.8955 6.864 40.6115 7.136 40.4035 7.488C40.2035 7.84 40.1035 8.24 40.1035 8.688C40.1035 9.136 40.2035 9.536 40.4035 9.888C40.6115 10.24 40.8955 10.516 41.2555 10.716C41.6235 10.908 42.0355 11.004 42.4915 11.004ZM51.3181 5.64C52.1101 5.64 52.7381 5.872 53.2021 6.336C53.6741 6.792 53.9101 7.46 53.9101 8.34V12H53.0581V8.424C53.0581 7.768 52.8941 7.268 52.5661 6.924C52.2381 6.58 51.7701 6.408 51.1621 6.408C50.4821 6.408 49.9421 6.612 49.5421 7.02C49.1501 7.42 48.9541 7.976 48.9541 8.688V12H48.1021V3.096H48.9541V6.792C49.1861 6.424 49.5061 6.14 49.9141 5.94C50.3221 5.74 50.7901 5.64 51.3181 5.64ZM59.5472 11.616C59.3872 11.76 59.1872 11.872 58.9472 11.952C58.7152 12.024 58.4712 12.06 58.2152 12.06C57.6232 12.06 57.1672 11.9 56.8472 11.58C56.5272 11.26 56.3672 10.808 56.3672 10.224V6.408H55.2392V5.688H56.3672V4.308H57.2192V5.688H59.1392V6.408H57.2192V10.176C57.2192 10.552 57.3112 10.84 57.4952 11.04C57.6872 11.232 57.9592 11.328 58.3112 11.328C58.4872 11.328 58.6552 11.3 58.8152 11.244C58.9832 11.188 59.1272 11.108 59.2472 11.004L59.5472 11.616ZM74.1723 12.06C73.3483 12.06 72.6043 11.876 71.9403 11.508C71.2843 11.14 70.7643 10.632 70.3803 9.984C70.0043 9.336 69.8163 8.608 69.8163 7.8C69.8163 6.992 70.0043 6.264 70.3803 5.616C70.7643 4.968 71.2843 4.46 71.9403 4.092C72.6043 3.724 73.3483 3.54 74.1723 3.54C74.7803 3.54 75.3403 3.64 75.8523 3.84C76.3643 4.032 76.8003 4.32 77.1603 4.704L76.7763 5.1C76.1043 4.436 75.2443 4.104 74.1963 4.104C73.4923 4.104 72.8523 4.264 72.2763 4.584C71.7003 4.904 71.2483 5.348 70.9202 5.916C70.5923 6.476 70.4283 7.104 70.4283 7.8C70.4283 8.496 70.5923 9.128 70.9202 9.696C71.2483 10.256 71.7003 10.696 72.2763 11.016C72.8523 11.336 73.4923 11.496 74.1963 11.496C75.2363 11.496 76.0963 11.16 76.7763 10.488L77.1603 10.884C76.8003 11.268 76.3603 11.56 75.8403 11.76C75.3283 11.96 74.7723 12.06 74.1723 12.06ZM93.3522 11.232V12H87.4602V11.388L90.9522 7.968C91.3922 7.536 91.6882 7.164 91.8402 6.852C92.0002 6.532 92.0802 6.212 92.0802 5.892C92.0802 5.396 91.9082 5.012 91.5642 4.74C91.2282 4.46 90.7442 4.32 90.1122 4.32C89.1282 4.32 88.3642 4.632 87.8202 5.256L87.2082 4.728C87.5362 4.344 87.9522 4.048 88.4562 3.84C88.9682 3.632 89.5442 3.528 90.1842 3.528C91.0402 3.528 91.7162 3.732 92.2122 4.14C92.7162 4.54 92.9682 5.092 92.9682 5.796C92.9682 6.228 92.8722 6.644 92.6802 7.044C92.4882 7.444 92.1242 7.904 91.5882 8.424L88.7322 11.232H93.3522ZM97.7376 12.072C97.0896 12.072 96.5096 11.9 95.9976 11.556C95.4936 11.212 95.0976 10.72 94.8096 10.08C94.5296 9.432 94.3896 8.672 94.3896 7.8C94.3896 6.928 94.5296 6.172 94.8096 5.532C95.0976 4.884 95.4936 4.388 95.9976 4.044C96.5096 3.7 97.0896 3.528 97.7376 3.528C98.3856 3.528 98.9616 3.7 99.4656 4.044C99.9776 4.388 100.378 4.884 100.666 5.532C100.954 6.172 101.098 6.928 101.098 7.8C101.098 8.672 100.954 9.432 100.666 10.08C100.378 10.72 99.9776 11.212 99.4656 11.556C98.9616 11.9 98.3856 12.072 97.7376 12.072ZM97.7376 11.28C98.2256 11.28 98.6536 11.144 99.0216 10.872C99.3976 10.6 99.6896 10.204 99.8976 9.684C100.106 9.164 100.21 8.536 100.21 7.8C100.21 7.064 100.106 6.436 99.8976 5.916C99.6896 5.396 99.3976 5 99.0216 4.728C98.6536 4.456 98.2256 4.32 97.7376 4.32C97.2496 4.32 96.8176 4.456 96.4416 4.728C96.0736 5 95.7856 5.396 95.5776 5.916C95.3696 6.436 95.2656 7.064 95.2656 7.8C95.2656 8.536 95.3696 9.164 95.5776 9.684C95.7856 10.204 96.0736 10.6 96.4416 10.872C96.8176 11.144 97.2496 11.28 97.7376 11.28ZM108.048 11.232V12H102.156V11.388L105.648 7.968C106.088 7.536 106.384 7.164 106.536 6.852C106.696 6.532 106.776 6.212 106.776 5.892C106.776 5.396 106.604 5.012 106.26 4.74C105.924 4.46 105.44 4.32 104.808 4.32C103.824 4.32 103.06 4.632 102.516 5.256L101.904 4.728C102.232 4.344 102.648 4.048 103.152 3.84C103.664 3.632 104.24 3.528 104.88 3.528C105.736 3.528 106.412 3.732 106.908 4.14C107.412 4.54 107.664 5.092 107.664 5.796C107.664 6.228 107.568 6.644 107.376 7.044C107.184 7.444 106.82 7.904 106.284 8.424L103.428 11.232H108.048ZM112.433 12.072C111.785 12.072 111.205 11.9 110.693 11.556C110.189 11.212 109.793 10.72 109.505 10.08C109.225 9.432 109.085 8.672 109.085 7.8C109.085 6.928 109.225 6.172 109.505 5.532C109.793 4.884 110.189 4.388 110.693 4.044C111.205 3.7 111.785 3.528 112.433 3.528C113.081 3.528 113.657 3.7 114.161 4.044C114.673 4.388 115.073 4.884 115.361 5.532C115.649 6.172 115.793 6.928 115.793 7.8C115.793 8.672 115.649 9.432 115.361 10.08C115.073 10.72 114.673 11.212 114.161 11.556C113.657 11.9 113.081 12.072 112.433 12.072ZM112.433 11.28C112.921 11.28 113.349 11.144 113.717 10.872C114.093 10.6 114.385 10.204 114.593 9.684C114.801 9.164 114.905 8.536 114.905 7.8C114.905 7.064 114.801 6.436 114.593 5.916C114.385 5.396 114.093 5 113.717 4.728C113.349 4.456 112.921 4.32 112.433 4.32C111.945 4.32 111.513 4.456 111.137 4.728C110.769 5 110.481 5.396 110.273 5.916C110.065 6.436 109.961 7.064 109.961 7.8C109.961 8.536 110.065 9.164 110.273 9.684C110.481 10.204 110.769 10.6 111.137 10.872C111.513 11.144 111.945 11.28 112.433 11.28ZM126.183 9.756H121.503L120.495 12H119.571L123.411 3.6H124.287L128.127 12H127.191L126.183 9.756ZM125.859 9.036L123.843 4.524L121.827 9.036H125.859ZM129.336 3.096H130.188V12H129.336V3.096ZM132.559 3.096H133.411V12H132.559V3.096ZM144.838 12L142.918 9.3C142.702 9.324 142.478 9.336 142.246 9.336H139.99V12H139.102V3.6H142.246C143.318 3.6 144.158 3.856 144.766 4.368C145.374 4.88 145.678 5.584 145.678 6.48C145.678 7.136 145.51 7.692 145.174 8.148C144.846 8.596 144.374 8.92 143.758 9.12L145.81 12H144.838ZM142.222 8.58C143.054 8.58 143.69 8.396 144.13 8.028C144.57 7.66 144.79 7.144 144.79 6.48C144.79 5.8 144.57 5.28 144.13 4.92C143.69 4.552 143.054 4.368 142.222 4.368H139.99V8.58H142.222ZM147.594 5.688H148.446V12H147.594V5.688ZM148.026 4.308C147.85 4.308 147.702 4.248 147.582 4.128C147.462 4.008 147.402 3.864 147.402 3.696C147.402 3.536 147.462 3.396 147.582 3.276C147.702 3.156 147.85 3.096 148.026 3.096C148.202 3.096 148.35 3.156 148.47 3.276C148.59 3.388 148.65 3.524 148.65 3.684C148.65 3.86 148.59 4.008 148.47 4.128C148.35 4.248 148.202 4.308 148.026 4.308ZM156.661 5.688V11.232C156.661 12.304 156.397 13.096 155.869 13.608C155.349 14.128 154.561 14.388 153.505 14.388C152.921 14.388 152.365 14.3 151.837 14.124C151.317 13.956 150.893 13.72 150.565 13.416L150.997 12.768C151.301 13.04 151.669 13.252 152.101 13.404C152.541 13.556 153.001 13.632 153.481 13.632C154.281 13.632 154.869 13.444 155.245 13.068C155.621 12.7 155.809 12.124 155.809 11.34V10.536C155.545 10.936 155.197 11.24 154.765 11.448C154.341 11.656 153.869 11.76 153.349 11.76C152.757 11.76 152.217 11.632 151.729 11.376C151.249 11.112 150.869 10.748 150.589 10.284C150.317 9.812 150.181 9.28 150.181 8.688C150.181 8.096 150.317 7.568 150.589 7.104C150.869 6.64 151.249 6.28 151.729 6.024C152.209 5.768 152.749 5.64 153.349 5.64C153.885 5.64 154.369 5.748 154.801 5.964C155.233 6.18 155.581 6.492 155.845 6.9V5.688H156.661ZM153.433 11.004C153.889 11.004 154.301 10.908 154.669 10.716C155.037 10.516 155.321 10.24 155.521 9.888C155.729 9.536 155.833 9.136 155.833 8.688C155.833 8.24 155.729 7.844 155.521 7.5C155.321 7.148 155.037 6.876 154.669 6.684C154.309 6.484 153.897 6.384 153.433 6.384C152.977 6.384 152.565 6.48 152.197 6.672C151.837 6.864 151.553 7.136 151.345 7.488C151.145 7.84 151.045 8.24 151.045 8.688C151.045 9.136 151.145 9.536 151.345 9.888C151.553 10.24 151.837 10.516 152.197 10.716C152.565 10.908 152.977 11.004 153.433 11.004ZM162.259 5.64C163.051 5.64 163.679 5.872 164.143 6.336C164.615 6.792 164.851 7.46 164.851 8.34V12H163.999V8.424C163.999 7.768 163.835 7.268 163.507 6.924C163.179 6.58 162.711 6.408 162.103 6.408C161.423 6.408 160.883 6.612 160.483 7.02C160.091 7.42 159.895 7.976 159.895 8.688V12H159.043V3.096H159.895V6.792C160.127 6.424 160.447 6.14 160.855 5.94C161.263 5.74 161.731 5.64 162.259 5.64ZM170.489 11.616C170.329 11.76 170.129 11.872 169.889 11.952C169.657 12.024 169.413 12.06 169.157 12.06C168.565 12.06 168.109 11.9 167.789 11.58C167.469 11.26 167.309 10.808 167.309 10.224V6.408H166.181V5.688H167.309V4.308H168.161V5.688H170.081V6.408H168.161V10.176C168.161 10.552 168.253 10.84 168.437 11.04C168.629 11.232 168.901 11.328 169.253 11.328C169.429 11.328 169.597 11.3 169.757 11.244C169.925 11.188 170.069 11.108 170.189 11.004L170.489 11.616ZM173.732 12.06C173.22 12.06 172.728 11.988 172.256 11.844C171.792 11.692 171.428 11.504 171.164 11.28L171.548 10.608C171.812 10.816 172.144 10.988 172.544 11.124C172.944 11.252 173.36 11.316 173.792 11.316C174.368 11.316 174.792 11.228 175.064 11.052C175.344 10.868 175.484 10.612 175.484 10.284C175.484 10.052 175.408 9.872 175.256 9.744C175.104 9.608 174.912 9.508 174.68 9.444C174.448 9.372 174.14 9.304 173.756 9.24C173.244 9.144 172.832 9.048 172.52 8.952C172.208 8.848 171.94 8.676 171.716 8.436C171.5 8.196 171.392 7.864 171.392 7.44C171.392 6.912 171.612 6.48 172.052 6.144C172.492 5.808 173.104 5.64 173.888 5.64C174.296 5.64 174.704 5.696 175.112 5.808C175.52 5.912 175.856 6.052 176.12 6.228L175.748 6.912C175.228 6.552 174.608 6.372 173.888 6.372C173.344 6.372 172.932 6.468 172.652 6.66C172.38 6.852 172.244 7.104 172.244 7.416C172.244 7.656 172.32 7.848 172.472 7.992C172.632 8.136 172.828 8.244 173.06 8.316C173.292 8.38 173.612 8.448 174.02 8.52C174.524 8.616 174.928 8.712 175.232 8.808C175.536 8.904 175.796 9.068 176.012 9.3C176.228 9.532 176.336 9.852 176.336 10.26C176.336 10.812 176.104 11.252 175.64 11.58C175.184 11.9 174.548 12.06 173.732 12.06ZM186.967 12L185.047 9.3C184.831 9.324 184.607 9.336 184.375 9.336H182.119V12H181.231V3.6H184.375C185.447 3.6 186.287 3.856 186.895 4.368C187.503 4.88 187.807 5.584 187.807 6.48C187.807 7.136 187.639 7.692 187.303 8.148C186.975 8.596 186.503 8.92 185.887 9.12L187.939 12H186.967ZM184.351 8.58C185.183 8.58 185.819 8.396 186.259 8.028C186.699 7.66 186.919 7.144 186.919 6.48C186.919 5.8 186.699 5.28 186.259 4.92C185.819 4.552 185.183 4.368 184.351 4.368H182.119V8.58H184.351ZM195.219 9.108H189.939C189.987 9.764 190.239 10.296 190.695 10.704C191.151 11.104 191.727 11.304 192.423 11.304C192.815 11.304 193.175 11.236 193.503 11.1C193.831 10.956 194.115 10.748 194.355 10.476L194.835 11.028C194.555 11.364 194.203 11.62 193.779 11.796C193.363 11.972 192.903 12.06 192.399 12.06C191.751 12.06 191.175 11.924 190.671 11.652C190.175 11.372 189.787 10.988 189.507 10.5C189.227 10.012 189.087 9.46 189.087 8.844C189.087 8.228 189.219 7.676 189.483 7.188C189.755 6.7 190.123 6.32 190.587 6.048C191.059 5.776 191.587 5.64 192.171 5.64C192.755 5.64 193.279 5.776 193.743 6.048C194.207 6.32 194.571 6.7 194.835 7.188C195.099 7.668 195.231 8.22 195.231 8.844L195.219 9.108ZM192.171 6.372C191.563 6.372 191.051 6.568 190.635 6.96C190.227 7.344 189.995 7.848 189.939 8.472H194.415C194.359 7.848 194.123 7.344 193.707 6.96C193.299 6.568 192.787 6.372 192.171 6.372ZM198.657 12.06C198.145 12.06 197.653 11.988 197.181 11.844C196.717 11.692 196.353 11.504 196.089 11.28L196.473 10.608C196.737 10.816 197.069 10.988 197.469 11.124C197.869 11.252 198.285 11.316 198.717 11.316C199.293 11.316 199.717 11.228 199.989 11.052C200.269 10.868 200.409 10.612 200.409 10.284C200.409 10.052 200.333 9.872 200.181 9.744C200.029 9.608 199.837 9.508 199.605 9.444C199.373 9.372 199.065 9.304 198.681 9.24C198.169 9.144 197.757 9.048 197.445 8.952C197.133 8.848 196.865 8.676 196.641 8.436C196.425 8.196 196.317 7.864 196.317 7.44C196.317 6.912 196.537 6.48 196.977 6.144C197.417 5.808 198.029 5.64 198.813 5.64C199.221 5.64 199.629 5.696 200.037 5.808C200.445 5.912 200.781 6.052 201.045 6.228L200.673 6.912C200.153 6.552 199.533 6.372 198.813 6.372C198.269 6.372 197.857 6.468 197.577 6.66C197.305 6.852 197.169 7.104 197.169 7.416C197.169 7.656 197.245 7.848 197.397 7.992C197.557 8.136 197.753 8.244 197.985 8.316C198.217 8.38 198.537 8.448 198.945 8.52C199.449 8.616 199.853 8.712 200.157 8.808C200.461 8.904 200.721 9.068 200.937 9.3C201.153 9.532 201.261 9.852 201.261 10.26C201.261 10.812 201.029 11.252 200.565 11.58C200.109 11.9 199.473 12.06 198.657 12.06ZM208.332 9.108H203.052C203.1 9.764 203.352 10.296 203.808 10.704C204.264 11.104 204.84 11.304 205.536 11.304C205.928 11.304 206.288 11.236 206.616 11.1C206.944 10.956 207.228 10.748 207.468 10.476L207.948 11.028C207.668 11.364 207.316 11.62 206.892 11.796C206.476 11.972 206.016 12.06 205.512 12.06C204.864 12.06 204.288 11.924 203.784 11.652C203.288 11.372 202.9 10.988 202.62 10.5C202.34 10.012 202.2 9.46 202.2 8.844C202.2 8.228 202.332 7.676 202.596 7.188C202.868 6.7 203.236 6.32 203.7 6.048C204.172 5.776 204.7 5.64 205.284 5.64C205.868 5.64 206.392 5.776 206.856 6.048C207.32 6.32 207.684 6.7 207.948 7.188C208.212 7.668 208.344 8.22 208.344 8.844L208.332 9.108ZM205.284 6.372C204.676 6.372 204.164 6.568 203.748 6.96C203.34 7.344 203.108 7.848 203.052 8.472H207.528C207.472 7.848 207.236 7.344 206.82 6.96C206.412 6.568 205.9 6.372 205.284 6.372ZM210.895 6.924C211.095 6.5 211.391 6.18 211.783 5.964C212.183 5.748 212.675 5.64 213.259 5.64V6.468L213.055 6.456C212.391 6.456 211.871 6.66 211.495 7.068C211.119 7.476 210.931 8.048 210.931 8.784V12H210.079V5.688H210.895V6.924ZM220.375 5.688L217.567 12H216.691L213.895 5.688H214.783L217.147 11.064L219.535 5.688H220.375ZM226.895 9.108H221.615C221.663 9.764 221.915 10.296 222.371 10.704C222.827 11.104 223.403 11.304 224.099 11.304C224.491 11.304 224.851 11.236 225.179 11.1C225.507 10.956 225.791 10.748 226.031 10.476L226.511 11.028C226.231 11.364 225.879 11.62 225.455 11.796C225.039 11.972 224.579 12.06 224.075 12.06C223.427 12.06 222.851 11.924 222.347 11.652C221.851 11.372 221.463 10.988 221.183 10.5C220.903 10.012 220.763 9.46 220.763 8.844C220.763 8.228 220.895 7.676 221.159 7.188C221.431 6.7 221.799 6.32 222.263 6.048C222.735 5.776 223.263 5.64 223.847 5.64C224.431 5.64 224.955 5.776 225.419 6.048C225.883 6.32 226.247 6.7 226.511 7.188C226.775 7.668 226.907 8.22 226.907 8.844L226.895 9.108ZM223.847 6.372C223.239 6.372 222.727 6.568 222.311 6.96C221.903 7.344 221.671 7.848 221.615 8.472H226.091C226.035 7.848 225.799 7.344 225.383 6.96C224.975 6.568 224.463 6.372 223.847 6.372ZM234.401 3.096V12H233.585V10.752C233.329 11.176 232.989 11.5 232.565 11.724C232.149 11.948 231.677 12.06 231.149 12.06C230.557 12.06 230.021 11.924 229.541 11.652C229.061 11.38 228.685 11 228.413 10.512C228.141 10.024 228.005 9.468 228.005 8.844C228.005 8.22 228.141 7.664 228.413 7.176C228.685 6.688 229.061 6.312 229.541 6.048C230.021 5.776 230.557 5.64 231.149 5.64C231.661 5.64 232.121 5.748 232.529 5.964C232.945 6.172 233.285 6.48 233.549 6.888V3.096H234.401ZM231.221 11.304C231.661 11.304 232.057 11.204 232.409 11.004C232.769 10.796 233.049 10.504 233.249 10.128C233.457 9.752 233.561 9.324 233.561 8.844C233.561 8.364 233.457 7.936 233.249 7.56C233.049 7.184 232.769 6.896 232.409 6.696C232.057 6.488 231.661 6.384 231.221 6.384C230.773 6.384 230.369 6.488 230.009 6.696C229.657 6.896 229.377 7.184 229.169 7.56C228.969 7.936 228.869 8.364 228.869 8.844C228.869 9.324 228.969 9.752 229.169 10.128C229.377 10.504 229.657 10.796 230.009 11.004C230.369 11.204 230.773 11.304 231.221 11.304Z" fill="#092F57"/>
<circle cx="74.5" cy="7.5" r="7.15" stroke="#092F57" stroke-width="0.7"/>
</svg>
