<svg width="189" height="19" viewBox="0 0 189 19" fill="none" xmlns="http://www.w3.org/2000/svg">
<path d="M11.1562 14.4844H4.99219L3.82031 18H0.0820312L6.43359 0.9375H9.69141L16.0781 18H12.3398L11.1562 14.4844ZM5.94141 11.6367H10.207L8.0625 5.25L5.94141 11.6367ZM27.3047 14.4844H21.1406L19.9688 18H16.2305L22.582 0.9375H25.8398L32.2266 18H28.4883L27.3047 14.4844ZM22.0898 11.6367H26.3555L24.2109 5.25L22.0898 11.6367ZM42.668 13.5234C42.668 12.8594 42.4336 12.3516 41.9648 12C41.4961 11.6406 40.6523 11.2656 39.4336 10.875C38.2148 10.4766 37.25 10.0859 36.5391 9.70312C34.6016 8.65625 33.6328 7.24609 33.6328 5.47266C33.6328 4.55078 33.8906 3.73047 34.4062 3.01172C34.9297 2.28516 35.6758 1.71875 36.6445 1.3125C37.6211 0.90625 38.7148 0.703125 39.9258 0.703125C41.1445 0.703125 42.2305 0.925781 43.1836 1.37109C44.1367 1.80859 44.875 2.42969 45.3984 3.23438C45.9297 4.03906 46.1953 4.95312 46.1953 5.97656H42.6797C42.6797 5.19531 42.4336 4.58984 41.9414 4.16016C41.4492 3.72266 40.7578 3.50391 39.8672 3.50391C39.0078 3.50391 38.3398 3.6875 37.8633 4.05469C37.3867 4.41406 37.1484 4.89062 37.1484 5.48438C37.1484 6.03906 37.4258 6.50391 37.9805 6.87891C38.543 7.25391 39.3672 7.60547 40.4531 7.93359C42.4531 8.53516 43.9102 9.28125 44.8242 10.1719C45.7383 11.0625 46.1953 12.1719 46.1953 13.5C46.1953 14.9766 45.6367 16.1367 44.5195 16.9805C43.4023 17.8164 41.8984 18.2344 40.0078 18.2344C38.6953 18.2344 37.5 17.9961 36.4219 17.5195C35.3438 17.0352 34.5195 16.375 33.9492 15.5391C33.3867 14.7031 33.1055 13.7344 33.1055 12.6328H36.6328C36.6328 14.5156 37.7578 15.457 40.0078 15.457C40.8438 15.457 41.4961 15.2891 41.9648 14.9531C42.4336 14.6094 42.668 14.1328 42.668 13.5234ZM62.4727 18H58.957V10.6875H52.1016V18H48.5859V0.9375H52.1016V7.85156H58.957V0.9375H62.4727V18ZM69.293 18H65.7773V0.9375H69.293V18ZM78.8789 11.7539H76.0781V18H72.5625V0.9375H78.9023C80.918 0.9375 82.4727 1.38672 83.5664 2.28516C84.6602 3.18359 85.207 4.45312 85.207 6.09375C85.207 7.25781 84.9531 8.23047 84.4453 9.01172C83.9453 9.78516 83.1836 10.4023 82.1602 10.8633L85.8516 17.8359V18H82.0781L78.8789 11.7539ZM76.0781 8.90625H78.9141C79.7969 8.90625 80.4805 8.68359 80.9648 8.23828C81.4492 7.78516 81.6914 7.16406 81.6914 6.375C81.6914 5.57031 81.4609 4.9375 81 4.47656C80.5469 4.01562 79.8477 3.78516 78.9023 3.78516H76.0781V8.90625ZM101.18 13.0781L103.477 0.9375H106.98L103.195 18H99.6562L96.8789 6.58594L94.1016 18H90.5625L86.7773 0.9375H90.2812L92.5898 13.0547L95.4023 0.9375H98.3789L101.18 13.0781ZM118.008 14.4844H111.844L110.672 18H106.934L113.285 0.9375H116.543L122.93 18H119.191L118.008 14.4844ZM112.793 11.6367H117.059L114.914 5.25L112.793 11.6367ZM124.523 18V0.9375H129.773C131.273 0.9375 132.613 1.27734 133.793 1.95703C134.98 2.62891 135.906 3.58984 136.57 4.83984C137.234 6.08203 137.566 7.49609 137.566 9.08203V9.86719C137.566 11.4531 137.238 12.8633 136.582 14.0977C135.934 15.332 135.016 16.2891 133.828 16.9688C132.641 17.6484 131.301 17.9922 129.809 18H124.523ZM128.039 3.78516V15.1758H129.738C131.113 15.1758 132.164 14.7266 132.891 13.8281C133.617 12.9297 133.988 11.6445 134.004 9.97266V9.07031C134.004 7.33594 133.645 6.02344 132.926 5.13281C132.207 4.23438 131.156 3.78516 129.773 3.78516H128.039Z" fill="#092F57"/>
<path d="M149.625 15.1758H157.09V18H146.109V0.9375H149.625V15.1758ZM168.984 14.4844H162.82L161.648 18H157.91L164.262 0.9375H167.52L173.906 18H170.168L168.984 14.4844ZM163.77 11.6367H168.035L165.891 5.25L163.77 11.6367ZM175.5 18V0.9375H181.477C183.547 0.9375 185.117 1.33594 186.188 2.13281C187.258 2.92187 187.793 4.08203 187.793 5.61328C187.793 6.44922 187.578 7.1875 187.148 7.82812C186.719 8.46094 186.121 8.92578 185.355 9.22266C186.23 9.44141 186.918 9.88281 187.418 10.5469C187.926 11.2109 188.18 12.0234 188.18 12.9844C188.18 14.625 187.656 15.8672 186.609 16.7109C185.562 17.5547 184.07 17.9844 182.133 18H175.5ZM179.016 10.5703V15.1758H182.027C182.855 15.1758 183.5 14.9805 183.961 14.5898C184.43 14.1914 184.664 13.6445 184.664 12.9492C184.664 11.3867 183.855 10.5938 182.238 10.5703H179.016ZM179.016 8.08594H181.617C183.391 8.05469 184.277 7.34766 184.277 5.96484C184.277 5.19141 184.051 4.63672 183.598 4.30078C183.152 3.95703 182.445 3.78516 181.477 3.78516H179.016V8.08594Z" fill="#5FBFE2"/>
</svg>
